<svg xmlns="http://www.w3.org/2000/svg" viewBox="0 0 33 33" role="img" aria-label="Rime Config support QR code">
  <title>Rime Config support QR code</title>
  <rect width="100%" height="100%" fill="#fff"/>
  <path transform="translate(4 4)" fill="#000" d="M0 0h7v1H0zM8 0h3v1H8zM13 0h1v1H13zM16 0h1v1H16zM18 0h7v1H18zM0 1h1v1H0zM6 1h1v1H6zM8 1h2v1H8zM13 1h1v1H13zM16 1h1v1H16zM18 1h1v1H18zM24 1h1v1H24zM0 2h1v1H0zM2 2h3v1H2zM6 2h1v1H6zM9 2h4v1H9zM15 2h1v1H15zM18 2h1v1H18zM20 2h3v1H20zM24 2h1v1H24zM0 3h1v1H0zM2 3h3v1H2zM6 3h1v1H6zM10 3h4v1H10zM18 3h1v1H18zM20 3h3v1H20zM24 3h1v1H24zM0 4h1v1H0zM2 4h3v1H2zM6 4h1v1H6zM8 4h1v1H8zM12 4h1v1H12zM14 4h1v1H14zM18 4h1v1H18zM20 4h3v1H20zM24 4h1v1H24zM0 5h1v1H0zM6 5h1v1H6zM8 5h5v1H8zM15 5h1v1H15zM18 5h1v1H18zM24 5h1v1H24zM0 6h7v1H0zM8 6h1v1H8zM10 6h1v1H10zM12 6h1v1H12zM14 6h1v1H14zM16 6h1v1H16zM18 6h7v1H18zM11 7h2v1H11zM14 7h1v1H14zM16 7h1v1H16zM0 8h4v1H0zM5 8h2v1H5zM9 8h7v1H9zM17 8h1v1H17zM19 8h2v1H19zM23 8h2v1H23zM2 9h4v1H2zM10 9h2v1H10zM14 9h3v1H14zM20 9h1v1H20zM24 9h1v1H24zM3 10h6v1H3zM10 10h1v1H10zM13 10h1v1H13zM16 10h3v1H16zM20 10h1v1H20zM22 10h2v1H22zM1 11h1v1H1zM7 11h1v1H7zM12 11h1v1H12zM14 11h2v1H14zM20 11h1v1H20zM22 11h1v1H22zM1 12h4v1H1zM6 12h1v1H6zM8 12h1v1H8zM11 12h1v1H11zM13 12h2v1H13zM16 12h1v1H16zM19 12h6v1H19zM1 13h1v1H1zM3 13h3v1H3zM9 13h2v1H9zM14 13h1v1H14zM18 13h1v1H18zM21 13h2v1H21zM0 14h2v1H0zM3 14h1v1H3zM6 14h2v1H6zM11 14h4v1H11zM17 14h3v1H17zM0 15h1v1H0zM2 15h3v1H2zM7 15h5v1H7zM13 15h4v1H13zM23 15h1v1H23zM0 16h1v1H0zM2 16h1v1H2zM4 16h6v1H4zM11 16h1v1H11zM13 16h1v1H13zM16 16h6v1H16zM10 17h1v1H10zM12 17h1v1H12zM16 17h1v1H16zM20 17h3v1H20zM24 17h1v1H24zM0 18h7v1H0zM10 18h1v1H10zM12 18h1v1H12zM14 18h1v1H14zM16 18h1v1H16zM18 18h1v1H18zM20 18h3v1H20zM24 18h1v1H24zM0 19h1v1H0zM6 19h1v1H6zM8 19h1v1H8zM14 19h3v1H14zM20 19h2v1H20zM23 19h1v1H23zM0 20h1v1H0zM2 20h3v1H2zM6 20h1v1H6zM9 20h2v1H9zM13 20h8v1H13zM23 20h1v1H23zM0 21h1v1H0zM2 21h3v1H2zM6 21h1v1H6zM8 21h3v1H8zM12 21h1v1H12zM14 21h1v1H14zM16 21h1v1H16zM19 21h2v1H19zM22 21h2v1H22zM0 22h1v1H0zM2 22h3v1H2zM6 22h1v1H6zM8 22h1v1H8zM10 22h3v1H10zM14 22h3v1H14zM19 22h3v1H19zM23 22h2v1H23zM0 23h1v1H0zM6 23h1v1H6zM8 23h2v1H8zM11 23h3v1H11zM15 23h1v1H15zM19 23h1v1H19zM21 23h4v1H21zM0 24h7v1H0zM8 24h1v1H8zM12 24h1v1H12zM21 24h1v1H21zM24 24h1v1H24z"/>
</svg>
